<svg width="36" height="36" viewBox="0 0 36 36" fill="none" xmlns="http://www.w3.org/2000/svg">
<rect width="36" height="36" rx="12" fill="#ebf3f6"/>
<path d="M24.2967 21.3365L22.2722 19.9221C22.0074 19.7374 21.698 19.6401 21.3771 19.6401C20.8668 19.6401 20.3879 19.8903 20.0961 20.309L19.6261 20.9825C18.8385 20.4543 17.9596 19.7167 17.1217 18.879C16.284 18.0413 15.5466 17.1624 15.0184 16.3747L15.6917 15.9047C16.0348 15.6658 16.264 15.3078 16.3368 14.897C16.4094 14.4866 16.3179 14.0718 16.0786 13.7285L14.6644 11.704C14.3687 11.281 13.8916 11.0283 13.3879 11.0283C13.2133 11.0283 13.0421 11.0591 12.8792 11.1193C12.6941 11.1876 12.5216 11.2715 12.3526 11.3777L12.073 11.5746C12.0032 11.6289 11.9382 11.6884 11.8759 11.7507C11.5349 12.0916 11.2929 12.5231 11.1563 13.0333C10.5736 15.2178 12.0172 18.521 14.7485 21.2523C17.0422 23.546 19.7978 24.9709 21.9397 24.9712H21.9398C22.3067 24.9712 22.6524 24.9285 22.9677 24.8442C23.4779 24.7078 23.9094 24.4658 24.2506 24.1246C24.3126 24.0627 24.3718 23.9977 24.4353 23.9156L24.6322 23.6345C24.7285 23.4807 24.8123 23.3083 24.8816 23.1218C25.1198 22.4779 24.8793 21.7437 24.2967 21.3365Z" fill="#DFA625"/>
</svg>
