<svg xmlns="http://www.w3.org/2000/svg" viewBox="0 0 944.44 404"><defs><style>.cls-1{fill:#ed8a65;stroke:#fcc485;stroke-width:15px;}.cls-1,.cls-7{stroke-miterlimit:10;}.cls-2{fill:#fecea0;}.cls-3{fill:#fcc485;}.cls-4{fill:#e6e7e8;}.cls-5{fill:#fff;}.cls-6{fill:#677272;}.cls-7{fill:#a1dde7;stroke:#677272;stroke-width:10px;}.cls-8{fill:#eb8d6c;}.cls-9{fill:#e67552;}.cls-10{fill:#dfa625;}</style></defs><g id="Layer_2" data-name="Layer 2"><g id="Layer_1-2" data-name="Layer 1"><g id="logo"><g id="baker"><rect class="cls-1" x="24.11" y="224" width="240.11" height="64" rx="20"/><path class="cls-2" d="M48.11,184h96a0,0,0,0,1,0,0V376a0,0,0,0,1,0,0h-46a50,50,0,0,1-50-50V184A0,0,0,0,1,48.11,184Z"/><path class="cls-3" d="M144.11,184h96a0,0,0,0,1,0,0V326a50,50,0,0,1-50,50h-46a0,0,0,0,1,0,0V184A0,0,0,0,1,144.11,184Z"/><path class="cls-4" d="M40.11,136h208a0,0,0,0,1,0,0v49a15,15,0,0,1-15,15h-178a15,15,0,0,1-15-15V136A0,0,0,0,1,40.11,136Z"/><rect class="cls-5" y="32" width="120.11" height="120.11" rx="60.06"/><path class="cls-4" d="M96.93,44.67a59.86,59.86,0,0,1,4.22,22.1h0a60.05,60.05,0,0,1-60.06,60.05h0A59.76,59.76,0,0,1,4.21,114.15a60.07,60.07,0,0,0,55.85,38h0a60.06,60.06,0,0,0,60.05-60.05h0A59.94,59.94,0,0,0,96.93,44.67Z"/><rect class="cls-5" x="168.11" y="31.89" width="120.11" height="120.11" rx="60.06"/><path class="cls-4" d="M265,44.56a59.86,59.86,0,0,1,4.22,22.1h0a60.05,60.05,0,0,1-60.06,60.05h0A59.79,59.79,0,0,1,172.33,114a60,60,0,0,0,55.84,38h0a60.06,60.06,0,0,0,60.05-60.06h0A59.94,59.94,0,0,0,265,44.56Z"/><rect class="cls-5" x="72.11" width="152" height="152" rx="76"/><path class="cls-4" d="M194.78,16a75.68,75.68,0,0,1,5.33,28h0a76,76,0,0,1-76,76h0a75.62,75.62,0,0,1-46.66-16,76,76,0,0,0,70.66,48h0a76,76,0,0,0,76-76h0A75.84,75.84,0,0,0,194.78,16Z"/><path class="cls-6" d="M164.78,328a11.34,11.34,0,0,1,11.33,11.33V376h-64V339.33A11.35,11.35,0,0,1,123.44,328h41.34m0-24H123.44a35.33,35.33,0,0,0-35.33,35.33V380a20,20,0,0,0,20,20h72a20,20,0,0,0,20-20V339.33A35.33,35.33,0,0,0,164.78,304Z"/><path class="cls-6" d="M176.11,352a8,8,0,0,1-8,8h-48a8,8,0,0,1-8-8v24h64V352Z"/><rect class="cls-7" x="72.11" y="232" width="56" height="40" rx="8.15"/><rect class="cls-7" x="160.11" y="232" width="56" height="40" rx="8.15"/><rect class="cls-7" x="128.11" y="248" width="32"/><path class="cls-8" d="M138.11,276h6a0,0,0,0,1,0,0v40a0,0,0,0,1,0,0h-11a5,5,0,0,1-5-5V286A10,10,0,0,1,138.11,276Z"/><path class="cls-9" d="M149.11,276h11a0,0,0,0,1,0,0v40a0,0,0,0,1,0,0h-6a10,10,0,0,1-10-10V281A5,5,0,0,1,149.11,276Z" transform="translate(304.22 592) rotate(180)"/></g><g id="text"><path class="cls-10" d="M372.08,20H523.6a20,20,0,0,1,20,20V212a0,0,0,0,1,0,0H372.08a20,20,0,0,1-20-20V40A20,20,0,0,1,372.08,20Z"/><path class="cls-10" d="M543.6,212H715.12a20,20,0,0,1,20,20V384a20,20,0,0,1-20,20H563.6a20,20,0,0,1-20-20V212A0,0,0,0,1,543.6,212Z"/><rect class="cls-10" x="361.01" y="243.26" width="26.79" height="98.23" rx="13.4"/><rect class="cls-10" x="361.01" y="368.28" width="26.79" height="26.79" rx="13.4"/><rect class="cls-10" x="405.66" y="296.84" width="26.79" height="98.23" rx="13.4"/><rect class="cls-10" x="450.31" y="243.26" width="26.79" height="62.51" rx="13.4"/><rect class="cls-10" x="494.96" y="296.84" width="26.79" height="53.58" rx="13.4"/><rect class="cls-10" x="405.66" y="243.26" width="26.79" height="26.79" rx="13.4"/><rect class="cls-10" x="450.31" y="368.28" width="26.79" height="26.79" rx="13.4"/><rect class="cls-10" x="450.31" y="323.63" width="26.79" height="26.79" rx="13.4"/><rect class="cls-10" x="494.96" y="243.26" width="26.79" height="26.79" rx="13.4"/><rect class="cls-10" x="494.96" y="368.28" width="26.79" height="26.79" rx="13.4"/><path class="cls-5" d="M385.44,73.26h36.48c9.08,0,15.93,2.36,20.53,7a18.27,18.27,0,0,1,5.39,13.39v.22c0,8.78-4.72,14.06-10.33,17,9.09,3.49,14.7,8.89,14.7,19.35v.22c0,14.4-11.67,21.6-29.4,21.6H385.44Zm45.23,23.28c0-5.28-4-8.1-11.34-8.1H402.28v16.65h15.93c7.63,0,12.46-2.47,12.46-8.32ZM435,128c0-5.29-3.81-8.55-12.79-8.55h-20v17.32h20.53c7.63,0,12.23-2.7,12.23-8.55Z"/><path class="cls-5" d="M461.08,134.68v-.23c0-13,10-19.23,24.24-19.23a42.73,42.73,0,0,1,14.7,2.47v-1c0-7.2-4.38-11-12.91-11a41.56,41.56,0,0,0-16.6,3.27l-4.27-13A54.61,54.61,0,0,1,489.58,91c9.43,0,15.94,2.36,20.31,6.75s6.51,11.14,6.51,19.24v35H499.91v-6.52c-4.16,4.61-9.77,7.65-18.18,7.65C470.39,153.13,461.08,146.71,461.08,134.68Zm39.16-3.94v-3a26.78,26.78,0,0,0-10.88-2.25c-7.3,0-11.78,2.93-11.78,8.33V134c0,4.61,3.81,7.31,9.31,7.31C495,141.31,500.24,137,500.24,130.74Z"/><path class="cls-5" d="M564.77,69.88h17.06v43.76l20-21.93h20.42l-22.89,23.73L623,152H603.26l-15.37-24.75-6.06,6.41V152H564.77Z"/><path class="cls-5" d="M631.54,69.88h18V85.07h-18ZM632,91.71h17V152H632Z"/><path class="cls-5" d="M665.09,91.71h17.06v8.54c3.93-5.06,9.09-9.67,17.61-9.67,13,0,20.43,8.44,20.43,22.39v39H703.13V118.37c0-8.1-3.7-12.27-10.32-12.27s-10.66,4.17-10.66,12.27V152H665.09Z"/><path class="cls-5" d="M735.34,163.92l5.83-12.82a39.19,39.19,0,0,0,20.31,5.51c11.67,0,17.17-5.62,17.17-16.42v-2.93c-5,6.19-10.55,9.79-19.63,9.79-14,0-26.71-10.12-26.71-28.12v-.23c0-18,12.9-28.12,26.71-28.12,9.31,0,14.81,3.94,19.41,9V91.71h17.05v46.68c0,10.69-2.58,18.67-7.63,23.73-5.72,5.74-14.25,8.1-25.92,8.1A56.61,56.61,0,0,1,735.34,163.92Zm43.31-45v-.23c0-8.21-6.28-14-14.7-14s-14.58,5.74-14.58,14v.23c0,8.43,6.17,13.95,14.58,13.95S778.65,127.14,778.65,118.93Z"/><path class="cls-5" d="M588.94,265.26h36.47c9.09,0,15.93,2.36,20.53,7a18.27,18.27,0,0,1,5.39,13.39v.22c0,8.78-4.71,14.06-10.32,17,9.08,3.49,14.7,8.89,14.7,19.35v.22c0,14.4-11.67,21.6-29.4,21.6H588.94Zm45.22,23.28c0-5.29-4-8.1-11.33-8.1H605.77v16.65h15.94c7.63,0,12.45-2.47,12.45-8.32Zm4.38,31.5c0-5.29-3.82-8.55-12.79-8.55h-20v17.32h20.54c7.63,0,12.23-2.7,12.23-8.54Z"/><path class="cls-5" d="M668.17,283.71h17.05v12.14c3.48-8.21,9-13.72,19.19-13.27v17.89h-.9c-11.33,0-18.29,6.75-18.29,21.26V344H668.17Z"/><path class="cls-5" d="M745.82,314.19V314c0-17.21,12.23-31.38,29.74-31.38,20.08,0,29.28,15.64,29.28,32.74,0,1.35-.11,2.81-.22,4.49H762.76c1.69,7.77,7.07,11.82,14.7,11.82,5.73,0,9.77-1.8,14.59-6.19l9.76,8.66c-5.72,7.09-13.69,11.25-24.57,11.25C759.17,345.35,745.82,332.64,745.82,314.19Zm42.42-5.06c-1-7.65-5.5-12.83-12.68-12.83s-11.67,5.07-13,12.83Z"/><path class="cls-5" d="M813.94,326.68v-.23c0-13.05,10-19.23,24.23-19.23a42.65,42.65,0,0,1,14.7,2.47v-1c0-7.2-4.37-11-12.9-11a41.64,41.64,0,0,0-16.61,3.27l-4.26-13.05A54.61,54.61,0,0,1,842.44,283c9.42,0,15.93,2.36,20.31,6.75s6.51,11.14,6.51,19.24v35h-16.5v-6.52c-4.15,4.61-9.76,7.64-18.18,7.64C823.25,345.12,813.94,338.71,813.94,326.68Zm39.16-3.94v-3a26.79,26.79,0,0,0-10.89-2.25c-7.29,0-11.78,2.93-11.78,8.33V326c0,4.61,3.82,7.31,9.31,7.31C847.82,333.31,853.1,329,853.1,322.74Z"/><path class="cls-5" d="M881.27,314v-.22c0-20.14,13.13-31.16,27.38-31.16,9.09,0,14.7,4.16,18.74,9v-29.7h17.05V344H927.39v-8.66c-4.16,5.74-9.77,9.78-18.74,9.78C894.62,345.12,881.27,334.1,881.27,314Zm46.34,0v-.22c0-10-6.62-16.65-14.59-16.65s-14.7,6.53-14.7,16.65V314c0,10,6.74,16.65,14.7,16.65S927.61,324,927.61,314Z"/><path class="cls-5" d="M508.39,49l1.05-1.17a2.81,2.81,0,0,0,1.87.8c.81,0,1.31-.36,1.31-1v0c0-.63-.57-1-1.39-1a3.32,3.32,0,0,0-1.31.28l-1-.63.22-3.64H514V44h-3.34l-.1,1.27a4.37,4.37,0,0,1,1-.12c1.52,0,2.74.7,2.74,2.36v0c0,1.56-1.17,2.56-3,2.56A4.19,4.19,0,0,1,508.39,49Z"/><path class="cls-5" d="M516.52,49.33a3.51,3.51,0,0,1-.93-2.79v0c0-2.28,1.1-4,3.44-4a3.76,3.76,0,0,1,2.46.82l-.91,1.25A2.49,2.49,0,0,0,519,44a1.67,1.67,0,0,0-1.58,1.71A2.92,2.92,0,0,1,519,45.2c1.56,0,2.76.81,2.76,2.35v0c0,1.52-1.29,2.56-3,2.56A3,3,0,0,1,516.52,49.33Zm3.54-1.68v0c0-.63-.51-1.07-1.37-1.07s-1.34.43-1.34,1.06v0c0,.63.51,1.09,1.37,1.09S520.06,48.28,520.06,47.65Z"/><path class="cls-5" d="M700.34,240.85l1.18-1.07a2.41,2.41,0,0,0,1.9.89c.66,0,1.11-.35,1.11-.9v0c0-.6-.56-.94-1.54-.94h-.71l-.27-1,1.87-1.78H700.8v-1.39h5.3v1.23l-2,1.78c1.06.17,2.1.68,2.1,2.07v0c0,1.39-1.07,2.42-2.82,2.42A3.85,3.85,0,0,1,700.34,240.85Z"/><path class="cls-5" d="M707.3,241l1.05-1.17a2.81,2.81,0,0,0,1.87.8c.81,0,1.31-.36,1.31-1v0c0-.63-.57-1-1.39-1a3.32,3.32,0,0,0-1.31.28l-1-.63.23-3.64h4.82V236h-3.34l-.09,1.27a4.22,4.22,0,0,1,1-.12c1.52,0,2.75.7,2.75,2.36v0c0,1.56-1.18,2.56-3,2.56A4.21,4.21,0,0,1,707.3,241Z"/></g></g></g></g></svg>